<svg xmlns="http://www.w3.org/2000/svg" xmlns:xlink="http://www.w3.org/1999/xlink" width="267.035" height="267.932" viewBox="0 0 267.035 267.932">
  <defs>
    <linearGradient id="linear-gradient" x1="-1.17" y1="0.463" x2="-0.17" y2="0.463" gradientUnits="objectBoundingBox">
      <stop offset="0" stop-color="#88c440"/>
      <stop offset="0.78" stop-color="#aacf39"/>
    </linearGradient>
  </defs>
  <g id="greenlight" transform="translate(0.003 0.072)">
    <circle id="Ellipse_1" data-name="Ellipse 1" cx="43.66" cy="43.66" r="43.66" transform="translate(80.66 168.85)" fill="url(#linear-gradient)"/>
    <circle id="Ellipse_2" data-name="Ellipse 2" cx="13.34" cy="13.34" r="13.34" transform="translate(121.9 211.7)" fill="#fff"/>
    <path id="Path_1" data-name="Path 1" d="M130.85-.45q-.06,22.8-.12,45.59V84.23c0,4.85,1.51,6.51,6.38,7.3a53,53,0,0,1,8,1.56c1.3.42,2.28,1.88,3.4,2.88-1.18,1.08-2.2,2.78-3.57,3.13a60.769,60.769,0,0,1-9.64,1.33c-6.16.56-12.35.84-18.49,1.58-2,.24-3.94,1.56-5.91,2.38,2,.88,3.85,2.36,5.86,2.52,10.16.86,20.36,1.35,30.53,2a11.8,11.8,0,0,1,4.41.94c1,.5,2.23,1.79,2.25,2.76a3.7,3.7,0,0,1-2.13,2.8,57.12,57.12,0,0,1-10.19,1.88c-10.27.81-20.57,1.38-30.86,2.05a8,8,0,0,0-2.88.35,21.2,21.2,0,0,0-3.18,2.3c1,.86,1.83,2.18,3,2.48a80.348,80.348,0,0,0,8.32,1.44c5,.85,10.12,1.43,15,2.7,6.14,1.58,7.86,4.55,6.1,10.68-3.16,11-1.14,20.93,5.34,30.24,3.41,4.89,6.44,10.05,9.51,15.17,2.35,3.91,2.5,6.76.44,7.92-3.17,1.78-5.32-.53-7.4-2.38-3.48-3.1-6.72-6.48-10.3-9.47-3.94-3.29-6.78-3.33-10.83-.1-3,2.43-5.71,5.32-8.54,8-1.18,1.12-2.18,2.61-3.57,3.27s-3.87,1.4-4.9.69-1.25-3.21-1-4.82a12.16,12.16,0,0,1,2.14-4.68c3.12-4.83,6.39-9.56,9.55-14.37,5.67-8.6,5-17.7,1.7-26.8-1.31-3.58-4.14-4-6.93-1.27a30.55,30.55,0,0,0-4.15,5C100.68,156.86,93.14,168,85.83,179.3c-5.59,8.65-9.61,17.93-10.45,28.41A52.56,52.56,0,0,0,118.42,264c24.09,4.49,47.2-5,58.77-24.79,9.75-16.68,10.11-34,1.52-51.35a165.86,165.86,0,0,0-10.2-17c-8-12.31-15.21-25-19-39.38-.27-1.05-.45-2.12-.63-3.18,0-.12.24-.28.58-.64a6.14,6.14,0,0,1,.7,1.37c3.69,15.45,11.3,29,20.06,42.06,5.33,7.94,10.48,16,13.31,25.24a53.94,53.94,0,0,1-42.23,69c-24.69,4.47-48.81-5.78-60.15-26.12C71.39,221.72,71,203.58,80.68,186c6.59-11.93,14.57-23.1,22-34.56a77.891,77.891,0,0,1,7.45-10.24,9.8,9.8,0,0,1,6.25-3.18c2.89-.06,4.06,2.88,4.81,5.45,3,10.34,2.13,20.14-4.19,29.18-2.67,3.82-5.22,7.73-7.72,11.67a17.579,17.579,0,0,0-2,4.42,3.22,3.22,0,0,0,.51,2.56c.25.32,1.73.07,2.3-.37,1.62-1.25,3.06-2.74,4.58-4.13,3-2.69,5.74-5.63,8.94-8,4.32-3.21,7.7-3.07,11.83.36,3.59,3,6.77,6.42,10.35,9.39,1.53,1.26,4.68,3,5.29,2.47,2.15-1.9.07-4.14-1-6-3.72-6.48-7.7-12.82-11.41-19.3-4.65-8.13-5.46-16.74-3.06-25.79,1.81-6.82.45-9.12-6.5-10.6-5.72-1.22-11.56-1.84-17.34-2.77-1.71-.27-3.58-.32-5-1.09s-3.12-2.22-3.13-3.4,1.82-2.62,3.16-3.33,2.94-.6,4.45-.71c11.69-.85,23.38-1.65,35.07-2.51a12.25,12.25,0,0,0,3.81-.77,13.06,13.06,0,0,0,2.66-2,20.538,20.538,0,0,0-2.89-2.19,6.49,6.49,0,0,0-2.56-.37c-9.75-.61-19.5-1.18-29.24-1.83a15.67,15.67,0,0,1-5.41-1c-1.26-.58-2.07-2.13-3.09-3.24,1.07-1,2-2.55,3.21-2.75,4.6-.75,9.26-1.1,13.9-1.53,5.3-.5,10.62-.78,15.88-1.49,1.6-.22,3.06-1.54,4.58-2.36a24,24,0,0,0-4.31-2.2,65.167,65.167,0,0,0-6.73-1.14c-4.11-.66-6.63-3.23-6.63-7.15q0-43,.05-86Z" transform="translate(-5.44 0.95)" fill="#666" stroke="#666" stroke-miterlimit="10" stroke-width="1"/>
    <path id="Path_2" data-name="Path 2" d="M231.83-.45V61.76c0,4.81.83,5.79,5.63,6.58a36.07,36.07,0,0,1,5.39,1.13c.78.26,1.87,1.33,1.8,1.91a3.5,3.5,0,0,1-1.76,2.33,10.61,10.61,0,0,1-3.78.81c-5.52.5-11,.86-16.55,1.39A45.117,45.117,0,0,0,217.52,77v1.46c2.32.41,4.62,1,7,1.2,6.49.48,13,.77,19.5,1.17a6.48,6.48,0,0,1,2.84.58c.82.49,2,1.57,1.87,2.21A3.54,3.54,0,0,1,246.61,86a66.542,66.542,0,0,1-9.31,1.36c-6.71.53-13.44.85-20.15,1.35a26.79,26.79,0,0,0-4.18.94l-.14,1.3a33.269,33.269,0,0,0,4.72,1.61c4.38.79,8.83,1.19,13.17,2.11,5.83,1.24,7.11,3.28,5.69,9a24.61,24.61,0,0,0,4.13,21.27c2.39,3.35,4.53,6.89,6.6,10.46,1.15,2,3.05,4.39.44,6.36-2.39,1.81-4.21-.47-5.87-1.93-2.37-2.07-4.52-4.38-6.93-6.4-2.88-2.41-4.93-2.47-7.9-.14-2.12,1.67-3.95,3.7-5.93,5.54a17.31,17.31,0,0,1-3.46,2.92,3.91,3.91,0,0,1-3.24.09c-.66-.37-1.07-1.91-.92-2.81a11.569,11.569,0,0,1,1.64-4.19c2.2-3.48,4.55-6.87,6.89-10.27,4.22-6.14,3.79-12.71,1.53-19.3-.95-2.75-2.88-3-5-1a12.239,12.239,0,0,0-1.91,2.21c-6.3,9.49-13,18.77-18.77,28.55-8.52,14.35-8.45,29,1.11,42.91,9.38,13.67,27.94,19.38,44.74,14.31a37.83,37.83,0,0,0,27.25-35.5,36.76,36.76,0,0,0-4.91-19.65c-2.62-4.62-5.54-9.07-8.37-13.56-5.12-8.1-9.65-16.48-12.11-25.82-.19-.73-.4-1.47-.52-2.21,0-.28.11-.6.72-1.37A10.211,10.211,0,0,1,246,95.3c2.74,11.49,8.57,21.46,14.91,31.26,3.27,5.08,6.55,10.35,8.6,16,9.71,26.61-10.66,53.74-39.28,52.74-22.28-.78-38.13-15.78-39.76-37.74a35.76,35.76,0,0,1,5.36-21.8c6.39-10.32,13.27-20.35,19.95-30.49a9.579,9.579,0,0,1,1-1.25c3.37-3.6,6.79-2.92,8.19,1.86,2.11,7.18,1.69,14.18-2.44,20.65-2,3.11-4.18,6.09-6.09,9.24a25.37,25.37,0,0,0-1.72,4.53l1,.67c1.27-1.06,2.56-2.09,3.79-3.2a91.253,91.253,0,0,1,7-6.33c3.31-2.44,5.67-2.29,8.87.28,2.37,1.89,4.47,4.1,6.76,6.1,1.24,1.09,2.61,2,3.92,3l1-.7a36.232,36.232,0,0,0-1.79-4.47c-2.6-4.62-5.4-9.13-8-13.75-3.33-5.89-3.62-12.14-2-18.61,1.18-4.82.37-6.23-4.57-7.32-4-.88-8.13-1.29-12.19-2a20,20,0,0,1-5-1.29,3.3,3.3,0,0,1-1.52-2.51c0-.68,1-1.68,1.75-2a12.33,12.33,0,0,1,3.79-.74c8.44-.63,16.89-1.17,25.33-1.86a32,32,0,0,0,4.83-1.15l.07-1.21a16.36,16.36,0,0,0-3.6-1.15c-5.52-.42-11-.66-16.57-1a44.18,44.18,0,0,1-7.75-.81c-1.3-.32-2.31-1.81-3.45-2.77,1.16-.8,2.26-2.16,3.5-2.31,6.56-.81,13.17-1.27,19.75-2a24.74,24.74,0,0,0,4.07-1.09V70.9c-2.36-.52-4.71-1.1-7.09-1.54-4.62-.84-5.85-2.2-5.86-7V3.41c0-1.3-.07-2.6-.1-3.91Z" transform="translate(-5.44 0.95)" fill="#666" stroke="#666" stroke-miterlimit="10" stroke-width="1" opacity="0"/>
    <path id="Path_3" data-name="Path 3" d="M43.56-.45V45.48c0,4.22.69,5,5,5.62a13.41,13.41,0,0,1,3.5.68,19.75,19.75,0,0,1,3.19,2.27,25.94,25.94,0,0,1-3.33,2.54,6.74,6.74,0,0,1-2.55.35c-5.08.44-10.17.84-15.25,1.32a26.66,26.66,0,0,0-3.36.76l-.16,1a19.32,19.32,0,0,0,3.9,1.11c5.74.42,11.49.66,17.23,1a21.92,21.92,0,0,1,5.13.76,3.08,3.08,0,0,1,1.85,2.2,3.08,3.08,0,0,1-2,2.13A63.351,63.351,0,0,1,48,68.51c-5.73.44-11.48.67-17.22,1.08a33.439,33.439,0,0,0-4.26.85l-.17,1.26a36.43,36.43,0,0,0,4.46,1.39c3.95.72,8,1.08,11.87,2,5,1.14,6.18,3,4.92,7.9a22.13,22.13,0,0,0,3.77,19.4,79.74,79.74,0,0,1,6.32,10.23c.68,1.35.09,3.34.08,5-1.64-.4-3.59-.38-4.86-1.3a70.531,70.531,0,0,1-6.72-6.13c-2.5-2.34-5.08-2.23-7.54,0-2.19,2-4.08,4.26-6.39,6-1.28,1-3.61,2-4.68,1.48-2.22-1.13-1.18-3.49-.19-5.14,2.12-3.53,4.4-7,6.78-10.34,3.91-5.53,3.59-11.43,1.6-17.41-.89-2.7-2.57-2.88-4.69-.9a3.23,3.23,0,0,0-.44.47c-7,10.86-15.23,21.11-20.55,32.72-10.66,23.26,8,48.73,33.8,47.63,19.18-.82,32.7-13.46,34.47-32.38.75-8.12-2-15.41-6.09-22.22-3.21-5.28-6.86-10.32-9.73-15.78-2.7-5.16-4.65-10.71-6.86-16.12a4.76,4.76,0,0,1,0-3.41,6.36,6.36,0,0,1,.7,1.34C58.89,86.16,63.93,95,69.62,103.5c4.54,6.79,8.9,13.71,9.79,22.09,2.41,22.69-14.33,40.75-37.24,40.29-28.15-.57-44.9-28.36-31.58-53.17,5.32-9.9,12.14-19,18.51-28.31,1-1.45,3.63-3.14,4.88-2.74,1.57.5,3.09,2.86,3.61,4.71A21.26,21.26,0,0,1,34.38,105c-1.6,2.32-3.22,4.64-4.68,7.06a28.55,28.55,0,0,0-1.65,3.93l.81.6c1-.8,2.12-1.53,3.09-2.39,2.17-2,4.15-4.16,6.46-5.93,3-2.27,5.4-2.17,8.29.17,2.27,1.84,4.29,4,6.5,5.9a30.931,30.931,0,0,0,3.22,2.13l.77-.75c-.68-1.39-1.29-2.81-2-4.15-2.3-4-4.71-8-7-12.1-2.89-5.19-3.23-10.68-1.81-16.4,1.14-4.61.43-5.81-4.23-6.86-3.41-.81-6.88-1.21-10.3-1.71a10.88,10.88,0,0,1-3.49-.68,16.57,16.57,0,0,1-3.07-2.76c1.12-.83,2.18-2.29,3.37-2.4,6.69-.66,13.42-.93,20.13-1.46,2.93-.24,5.84-.8,8.75-1.22l.07-1.5a32.22,32.22,0,0,0-4.6-1c-6.38-.48-12.77-.83-19.16-1.24A3.87,3.87,0,0,1,31.94,62a25.319,25.319,0,0,1-2.58-2.5c.86-.7,1.65-1.87,2.6-2,3.63-.57,7.32-.83,11-1.18,2.59-.25,5.19-.4,7.78-.72a19.85,19.85,0,0,0,3.2-1v-1c-1.81-.41-3.61-.93-5.44-1.2-5.07-.74-6.21-2-6.22-7.24V-.44Z" transform="translate(-5.44 0.95)" fill="#666" stroke="#666" stroke-miterlimit="10" stroke-width="1" opacity="0"/>
  </g>
</svg>
